<?xml version="1.0" standalone="no"?>
<!DOCTYPE svg PUBLIC "-//W3C//DTD SVG 20010904//EN"
 "http://www.w3.org/TR/2001/REC-SVG-20010904/DTD/svg10.dtd">
<svg version="1.0" xmlns="http://www.w3.org/2000/svg"
 width="1254.000000pt" height="1254.000000pt" viewBox="0 0 1254.000000 1254.000000"
 preserveAspectRatio="xMidYMid meet">

<g transform="translate(0.000000,1254.000000) scale(0.100000,-0.100000)"
fill="#000000" stroke="none">
<path d="M5975 12500 c-1024 -64 -1993 -361 -2827 -866 -431 -261 -929 -658
-1269 -1013 -671 -698 -1195 -1562 -1495 -2467 -373 -1125 -398 -2412 -69
-3558 206 -717 535 -1390 979 -2005 531 -736 1235 -1355 2058 -1809 940 -519
2034 -788 3078 -758 962 28 1904 288 2771 763 1137 624 1999 1527 2592 2713
245 490 404 934 520 1455 98 435 137 809 137 1297 0 390 -19 622 -80 1003
-166 1025 -606 2007 -1296 2895 -263 339 -653 735 -988 1004 -418 336 -796
574 -1250 788 -650 306 -1332 487 -2066 548 -175 15 -628 20 -795 10z m670
-400 c1020 -67 1914 -369 2775 -937 1101 -727 1959 -1863 2386 -3162 101 -308
151 -505 204 -816 249 -1460 -90 -2960 -961 -4250 -359 -532 -808 -1006 -1319
-1392 -765 -577 -1693 -967 -2636 -1107 -815 -121 -1574 -66 -2404 174 -877
254 -1798 798 -2484 1470 -479 470 -842 972 -1151 1595 -313 633 -503 1280
-580 1985 -22 195 -31 726 -16 950 64 986 380 1920 950 2805 240 373 471 663
781 979 460 469 950 822 1565 1126 494 245 938 396 1435 489 232 44 528 81
755 94 127 8 565 6 700 -3z"/>
<path d="M5928 11885 c-104 -6 -190 -14 -193 -17 -4 -3 -1 -82 5 -174 6 -93
14 -226 19 -296 4 -70 10 -131 14 -134 6 -6 324 10 435 22 58 6 59 9 46 105
l-6 44 -92 -7 c-50 -3 -116 -7 -147 -7 l-56 -1 -6 48 c-3 26 -4 48 -2 50 1 2
60 6 129 9 70 3 128 9 131 12 2 4 1 35 -2 70 l-6 64 -134 -7 -133 -7 0 39 0
39 77 7 c42 3 100 6 129 6 82 0 84 2 84 81 l0 69 -52 -2 c-29 0 -137 -6 -240
-13z"/>
<path d="M6356 11634 c-9 -148 -19 -285 -22 -305 l-5 -36 47 -7 c26 -3 68 -6
94 -6 l48 0 7 98 c3 53 7 106 8 117 2 19 8 20 87 16 47 -2 86 -5 88 -6 2 -2 0
-56 -5 -120 -6 -79 -5 -119 2 -121 5 -2 48 -5 95 -7 l84 -2 23 275 c12 151 22
287 22 302 1 29 1 29 -136 42 l-51 5 -7 -97 c-3 -53 -8 -102 -10 -107 -3 -10
-159 -4 -170 6 -3 3 -1 49 3 103 4 54 5 99 2 101 -3 2 -46 6 -96 10 l-90 7
-18 -268z"/>
<path d="M5218 11792 c-81 -15 -149 -29 -152 -33 -5 -5 91 -589 98 -597 5 -5
167 25 174 33 3 2 -3 54 -13 115 -10 60 -16 112 -12 116 19 19 58 -13 126
-107 l74 -101 41 6 c119 19 166 29 166 36 0 13 -140 193 -167 216 l-25 20 27
18 c64 42 81 156 32 227 -58 85 -130 95 -369 51z m190 -134 c16 -16 15 -53 -1
-67 -15 -12 -114 -37 -121 -30 -2 2 -7 25 -11 51 -7 43 -5 47 16 51 49 9 105
7 117 -5z"/>
<path d="M7240 11790 c-133 -28 -224 -167 -225 -345 0 -71 3 -86 31 -135 67
-118 240 -180 386 -140 90 25 168 124 194 243 18 82 17 123 -2 188 -39 132
-222 222 -384 189z m144 -160 c60 -23 75 -117 36 -224 -25 -66 -56 -91 -113
-91 -31 0 -45 7 -68 33 -24 27 -29 41 -29 85 0 150 75 235 174 197z"/>
<path d="M4650 11645 c-209 -62 -205 -61 -202 -81 7 -33 169 -555 176 -561 6
-7 164 36 171 47 2 4 -9 49 -25 101 -17 52 -30 99 -30 105 0 7 21 17 46 23
153 39 222 125 195 244 -23 102 -83 157 -173 157 -23 -1 -95 -16 -158 -35z
m131 -136 c11 -11 19 -30 17 -41 -4 -24 -41 -54 -80 -63 -25 -6 -28 -4 -42 46
-9 29 -15 53 -13 55 3 4 71 22 85 23 6 1 21 -8 33 -20z"/>
<path d="M7855 11616 c-60 -27 -105 -99 -105 -168 0 -35 30 -96 62 -124 12
-12 50 -39 83 -61 77 -52 99 -76 90 -102 -8 -25 -37 -35 -80 -27 -42 8 -57 27
-64 79 l-6 42 -83 22 c-60 16 -84 18 -87 10 -20 -68 -7 -138 36 -190 17 -20
59 -51 95 -68 54 -27 81 -33 148 -37 99 -5 149 15 196 79 79 109 37 216 -124
318 -81 51 -94 67 -74 88 12 11 26 14 52 9 38 -7 56 -29 56 -70 0 -21 7 -27
43 -36 23 -6 61 -17 84 -25 23 -7 44 -11 47 -7 3 3 6 28 6 56 0 95 -55 159
-176 201 -77 27 -153 31 -199 11z"/>
<path d="M8355 11313 c-145 -313 -185 -405 -181 -412 6 -9 156 -75 160 -70 2
2 24 46 50 96 l46 93 57 -26 c84 -37 137 -46 184 -34 87 24 156 128 147 221
-8 83 -39 111 -222 200 -89 43 -164 79 -167 79 -3 0 -37 -66 -74 -147z m233
-83 c38 -23 47 -40 38 -75 -9 -37 -46 -48 -93 -29 -21 9 -39 17 -41 19 -5 5
48 105 56 105 4 0 22 -9 40 -20z"/>
<path d="M3900 11358 c-41 -22 -76 -42 -78 -43 -2 -2 29 -62 68 -135 39 -73
70 -134 67 -136 -2 -2 -72 39 -155 90 l-152 95 -80 -46 -80 -45 72 -137 c39
-75 90 -170 113 -211 23 -41 56 -103 73 -137 l32 -62 72 40 c40 22 74 42 76
44 2 2 -28 66 -68 141 l-73 138 49 -29 c26 -15 95 -57 153 -92 58 -34 112 -63
119 -63 10 0 149 65 160 75 2 2 -30 66 -71 142 -41 76 -107 200 -146 276 -40
75 -73 137 -74 137 -1 0 -36 -19 -77 -42z"/>
<path d="M8966 11158 c-33 -53 -286 -500 -286 -507 0 -4 36 -28 79 -53 l80
-47 70 122 c38 67 106 185 150 262 45 77 81 145 81 152 0 10 -137 93 -154 93
-3 0 -12 -10 -20 -22z"/>
<path d="M5975 11129 c-798 -51 -1595 -324 -2285 -784 -446 -297 -894 -723
-1232 -1170 -844 -1119 -1173 -2572 -882 -3897 152 -694 453 -1348 877 -1908
179 -236 335 -411 563 -631 498 -480 1083 -841 1743 -1076 367 -130 774 -213
1196 -244 202 -15 661 -6 850 16 458 53 892 170 1292 349 583 261 1061 586
1494 1018 809 807 1315 1832 1445 2928 21 182 30 672 15 870 -71 938 -418
1850 -1001 2625 -253 337 -629 710 -973 967 -914 682 -1994 1008 -3102 937z
m785 -394 c739 -91 1435 -364 2049 -805 851 -610 1487 -1550 1749 -2585 156
-616 179 -1275 66 -1895 -91 -499 -296 -1036 -569 -1489 -602 -999 -1559
-1746 -2628 -2050 -379 -108 -696 -151 -1121 -151 -392 0 -698 38 -1090 136
-260 65 -481 146 -768 280 -904 422 -1681 1182 -2129 2083 -247 498 -389 974
-456 1531 -24 204 -24 705 1 915 114 973 490 1825 1127 2549 628 714 1434
1194 2349 1400 230 51 367 72 665 100 106 10 628 -3 755 -19z"/>
<path d="M5318 9246 l-3 -1174 -195 115 c-107 63 -294 174 -415 245 -121 72
-364 215 -540 318 -176 103 -419 246 -540 318 -167 99 -223 127 -232 119 -30
-31 -993 -1721 -993 -1743 0 -5 33 -27 73 -50 227 -128 448 -259 1022 -607
451 -273 767 -468 783 -482 11 -10 -85 -76 -490 -335 -466 -299 -973 -625
-1128 -725 -36 -23 -112 -73 -170 -110 -58 -37 -106 -68 -108 -70 -5 -4 180
-325 533 -920 94 -159 247 -420 340 -580 93 -159 170 -292 172 -294 2 -4 118
71 683 444 359 237 526 346 752 492 79 51 213 137 298 192 l155 100 3 -1204 2
-1205 953 2 952 3 3 1198 c1 658 4 1197 7 1197 3 0 124 -74 268 -163 144 -90
328 -205 409 -255 81 -51 218 -138 305 -193 87 -56 201 -129 253 -162 52 -33
131 -84 175 -112 44 -29 169 -109 277 -178 108 -70 203 -130 211 -133 10 -3
23 9 39 38 54 94 144 250 218 373 42 72 137 234 210 360 73 127 162 280 198
340 148 249 382 658 380 660 -24 21 -1236 790 -1648 1045 -118 73 -221 139
-228 145 -10 9 29 39 190 142 459 294 1133 713 1531 952 75 45 137 86 137 91
0 7 -326 581 -552 970 -325 562 -454 780 -459 780 -3 0 -185 -107 -405 -238
-219 -131 -471 -281 -559 -333 -88 -52 -338 -201 -555 -331 l-395 -237 -3
1185 -2 1184 -955 0 -955 0 -2 -1174z m1093 784 c20 -11 48 -33 62 -49 44 -53
50 -116 41 -412 l-9 -267 -62 38 c-81 48 -174 72 -293 75 l-95 1 -3 215 c-1
124 2 235 8 263 18 84 74 138 160 157 51 11 148 0 191 -21z m-93 -755 c203
-47 392 -216 392 -351 l0 -51 58 -21 c70 -26 132 -65 192 -121 49 -46 50 -45
-37 -24 -20 4 -22 1 -25 -43 l-3 -48 -30 59 c-33 65 -100 124 -162 143 -30 9
-47 7 -107 -13 -158 -53 -330 -56 -500 -10 -106 29 -128 26 -184 -28 -68 -66
-99 -229 -68 -360 17 -72 53 -152 92 -204 24 -31 24 -36 24 -248 l0 -216 -32
18 c-54 30 -242 224 -292 300 -90 138 -134 273 -143 440 -13 249 57 452 212
608 164 166 376 224 613 170z m-164 -605 c70 -14 208 -18 291 -7 l60 7 -12
-617 c-6 -340 -15 -750 -18 -911 l-7 -293 -117 -104 c-64 -57 -148 -129 -187
-159 l-71 -55 -7 572 c-3 315 -9 801 -13 1081 -5 440 -4 509 8 504 8 -3 41
-11 73 -18z m614 -1042 c76 -56 166 -142 208 -199 142 -194 160 -441 49 -676
-88 -188 -211 -309 -570 -563 -323 -229 -432 -339 -480 -488 -25 -75 -17 -190
17 -264 23 -50 27 -76 34 -198 5 -95 3 -140 -4 -140 -20 0 -133 93 -185 153
-105 121 -156 244 -164 397 -15 276 132 513 482 778 288 219 447 372 506 488
32 64 34 74 34 164 0 102 -13 141 -70 208 -24 29 -25 34 -25 168 0 77 3 169 6
205 l7 67 49 -29 c27 -16 74 -48 106 -71z m-322 -1835 c-4 -142 -11 -436 -17
-653 l-10 -395 -34 -50 c-19 -27 -79 -94 -134 -149 l-99 -99 -6 94 c-3 52 -8
247 -11 434 -3 187 -8 441 -11 565 l-6 225 78 77 c66 64 240 207 253 208 2 0
0 -116 -3 -257z m167 -597 c81 -52 154 -131 193 -211 73 -148 70 -277 -11
-442 -57 -115 -150 -216 -349 -380 -243 -200 -354 -319 -393 -426 -8 -23 -16
-74 -16 -112 -1 -58 3 -81 26 -126 22 -46 27 -70 27 -132 0 -43 -3 -77 -8 -77
-15 0 -105 81 -139 125 -53 71 -92 163 -105 252 -30 203 73 415 300 621 167
150 347 335 375 384 37 64 48 126 33 196 -13 68 -9 362 5 362 6 0 33 -15 62
-34z m-203 -1412 c0 -248 -18 -987 -25 -1029 -3 -16 -30 -63 -60 -104 -57 -77
-66 -108 -38 -136 12 -13 26 -15 58 -10 l42 6 -7 -41 c-9 -51 -33 -78 -76 -86
-46 -8 -92 20 -104 66 -5 19 -12 326 -16 682 l-7 648 107 105 c59 58 112 105
117 105 5 0 9 -87 9 -206z m157 -612 c59 -80 68 -111 68 -232 0 -112 -1 -117
-34 -178 -19 -35 -55 -81 -79 -103 -42 -36 -162 -103 -170 -94 -3 2 12 24 32
48 79 97 133 266 115 360 -10 57 -12 130 -3 204 6 50 7 51 28 38 12 -8 31 -27
43 -43z"/>
<path d="M6246 9101 c-43 -47 51 -105 115 -71 46 25 2 90 -61 90 -24 0 -43 -7
-54 -19z"/>
<path d="M3080 11074 l-65 -44 4 -68 c1 -37 4 -68 6 -70 2 -2 26 12 53 30 l50
33 12 78 c7 43 11 79 9 81 -2 2 -33 -16 -69 -40z"/>
<path d="M9191 10979 c-23 -34 -41 -65 -41 -70 0 -5 31 -30 69 -57 l69 -49
-130 -192 c-71 -106 -128 -193 -127 -195 108 -75 139 -96 148 -96 5 0 62 78
126 173 65 94 123 178 130 186 12 12 24 7 85 -35 42 -28 74 -44 78 -38 34 49
83 127 80 129 -5 5 -392 270 -420 287 l-27 18 -40 -61z"/>
<path d="M3215 10956 c-61 -19 -103 -44 -152 -89 -67 -62 -87 -107 -88 -197 0
-65 4 -84 32 -141 90 -182 259 -258 414 -187 68 31 131 86 165 144 68 116 23
280 -112 403 -81 74 -166 96 -259 67z m136 -215 c53 -57 89 -124 89 -165 0
-18 -12 -40 -34 -62 -64 -64 -136 -39 -213 75 -58 87 -60 134 -6 181 32 28 41
32 77 27 33 -5 50 -15 87 -56z"/>
<path d="M2689 10583 c-35 -31 -63 -62 -63 -69 1 -6 82 -103 180 -214 99 -112
190 -216 204 -232 l25 -29 68 60 c38 33 68 62 68 66 0 7 -397 461 -409 469 -5
3 -37 -20 -73 -51z"/>
<path d="M9815 10536 c-22 -12 -149 -83 -282 -156 -134 -74 -243 -136 -242
-139 0 -7 127 -115 140 -119 6 -2 28 8 50 22 l40 27 47 -40 c26 -21 58 -51 71
-65 l25 -26 -18 -50 -18 -50 63 -60 c35 -32 69 -59 75 -60 9 0 138 312 228
552 l25 67 -68 60 c-38 34 -75 61 -82 61 -8 0 -32 -11 -54 -24z m-42 -277
l-38 -82 -38 33 c-21 18 -36 37 -34 43 3 10 140 97 145 92 2 -2 -14 -40 -35
-86z"/>
<path d="M2442 10343 c-57 -20 -145 -102 -176 -165 -56 -113 -21 -246 93 -358
145 -142 298 -156 426 -38 105 96 133 203 80 316 -28 60 -21 60 -123 -5 l-52
-33 15 -30 c49 -95 -48 -192 -135 -134 -41 28 -131 117 -146 146 -23 45 -18
86 16 120 32 31 31 31 121 16 11 -2 33 22 63 66 52 77 52 77 -28 101 -61 18
-98 18 -154 -2z"/>
<path d="M10064 10018 c-103 -95 -202 -186 -221 -202 -19 -15 -33 -34 -31 -41
4 -17 291 -344 300 -342 3 1 31 26 62 55 l56 54 -92 99 c-90 98 -91 100 -72
118 10 10 85 77 166 150 81 72 149 135 152 140 6 9 -111 141 -125 141 -5 0
-93 -78 -195 -172z"/>
<path d="M1995 9887 c-26 -33 -48 -67 -49 -75 -1 -8 52 -56 116 -106 65 -50
118 -94 118 -97 0 -3 -64 4 -142 16 -251 39 -217 43 -277 -36 -28 -38 -51 -72
-51 -77 0 -5 71 -63 158 -129 86 -66 198 -152 248 -192 l92 -71 51 67 c28 36
51 68 51 72 0 5 -202 164 -233 183 -27 16 7 15 163 -8 91 -13 174 -23 185 -24
14 0 37 23 72 69 l52 69 -82 63 c-45 35 -159 125 -253 200 l-172 138 -47 -62z"/>
<path d="M10448 9507 c-175 -45 -318 -85 -318 -90 0 -8 78 -124 100 -150 3 -4
26 -1 49 8 24 8 49 15 55 15 7 0 36 -34 65 -76 l53 -77 -32 -44 c-17 -25 -29
-51 -26 -58 5 -14 107 -155 111 -155 2 0 33 42 68 93 35 50 121 170 191 265
69 96 126 176 126 179 0 7 -109 162 -118 166 -4 2 -150 -32 -324 -76z m201
-134 c-7 -10 -33 -42 -57 -71 l-44 -53 -24 34 c-13 19 -25 41 -26 47 -2 8 25
22 67 35 91 30 102 31 84 8z"/>
<path d="M1587 9343 c-21 -34 -158 -256 -208 -340 l-20 -31 58 -33 c85 -48
285 -165 387 -227 48 -29 93 -51 100 -49 11 4 239 358 251 390 4 9 -13 26 -55
51 -34 20 -64 36 -68 36 -4 0 -40 -54 -81 -120 -41 -66 -78 -120 -82 -120 -13
0 -79 41 -79 49 0 4 25 46 55 94 85 135 83 120 13 157 -57 30 -63 32 -72 16
-6 -9 -37 -57 -68 -106 l-57 -90 -35 21 c-41 24 -45 11 50 166 l64 103 -43 21
c-23 12 -52 28 -64 36 -20 14 -23 12 -46 -24z"/>
<path d="M10960 9087 c-52 -29 -167 -92 -255 -140 -88 -48 -166 -91 -173 -95
-10 -7 -2 -28 33 -90 43 -77 48 -81 68 -71 12 7 58 32 101 57 75 42 80 43 93
26 7 -10 13 -23 13 -29 0 -6 -32 -57 -71 -114 l-71 -103 48 -94 c27 -52 51
-94 54 -94 9 0 128 183 147 225 l18 40 35 -17 c70 -36 169 -12 223 51 63 75
53 136 -55 337 -47 88 -92 160 -99 161 -8 1 -57 -21 -109 -50z m107 -223 c39
-67 27 -114 -28 -114 -28 0 -59 31 -88 87 -10 19 -7 24 32 46 23 14 47 24 52
23 6 -2 20 -20 32 -42z"/>
<path d="M1187 8653 c-65 -131 -117 -241 -117 -245 0 -7 125 -68 139 -68 4 0
23 32 41 71 19 39 38 73 42 75 6 4 49 -15 311 -139 l117 -56 40 79 c22 44 40
82 40 85 0 3 -95 52 -210 110 l-210 105 35 70 c19 38 35 72 35 75 0 4 -134 75
-143 75 -1 0 -56 -107 -120 -237z"/>
<path d="M11255 8486 c-324 -131 -440 -179 -443 -181 -6 -5 70 -185 77 -181 3
2 114 47 246 99 132 52 261 104 287 116 l48 20 -36 83 c-19 46 -38 86 -42 90
-4 3 -65 -17 -137 -46z"/>
<path d="M980 8163 c-6 -15 -22 -57 -35 -93 -13 -36 -25 -70 -27 -77 -2 -6 53
-59 122 -119 69 -59 175 -150 235 -203 61 -52 117 -101 126 -108 15 -12 20 -4
53 79 l36 93 -44 40 -44 40 37 90 38 90 58 0 59 0 33 93 c18 50 32 92 30 93
-1 0 -152 2 -335 5 l-332 5 -10 -28z m288 -153 c28 0 52 -4 52 -9 0 -5 -9 -30
-20 -56 l-20 -46 -69 53 c-39 29 -70 57 -70 62 -1 5 16 6 37 2 20 -3 61 -6 90
-6z"/>
<path d="M10933 7988 l32 -93 57 -3 57 -3 30 -91 c31 -91 31 -91 10 -106 -11
-7 -31 -24 -45 -35 l-25 -22 32 -92 c17 -51 34 -93 37 -93 4 0 36 24 72 53 36
28 152 121 258 205 107 85 192 159 189 165 -2 7 -16 49 -31 94 l-27 82 -52 5
c-76 9 -444 26 -542 26 l-84 0 32 -92z m467 -91 c0 -5 -127 -97 -134 -97 -7 0
-22 36 -32 75 l-6 25 86 0 c47 0 86 -1 86 -3z"/>
<path d="M1785 3666 c-109 -27 -232 -122 -277 -214 -35 -71 -32 -158 8 -242
34 -70 86 -130 136 -156 45 -23 135 -29 183 -11 45 17 45 15 8 109 l-25 66
-54 -5 c-49 -5 -55 -4 -85 26 -28 29 -31 36 -26 74 5 34 15 51 56 88 95 88
187 115 236 69 36 -34 42 -81 16 -123 -12 -19 -21 -37 -21 -40 0 -3 23 -34 51
-67 50 -60 51 -61 71 -43 11 10 32 38 47 63 34 59 36 161 5 230 -65 139 -197
210 -329 176z"/>
<path d="M10337 3361 c-8 -9 -32 -43 -54 -76 l-40 -60 187 -282 c102 -155 188
-285 191 -288 4 -3 31 28 62 69 l56 74 -33 44 -34 44 45 60 c25 32 51 68 59
78 13 19 16 19 64 4 l50 -16 45 63 c57 81 62 93 39 102 -11 4 -155 51 -321
104 -274 87 -304 95 -316 80z m214 -221 c45 -17 85 -33 90 -36 8 -5 -49 -94
-60 -94 -3 0 -18 17 -33 38 -14 20 -41 56 -58 80 -17 23 -29 42 -27 42 3 0 43
-14 88 -30z"/>
<path d="M2189 3177 c-42 -34 -112 -91 -156 -127 -43 -36 -118 -96 -166 -135
-47 -38 -84 -75 -82 -82 7 -21 266 -343 276 -343 10 0 112 78 116 89 2 3 -22
38 -53 76 -31 39 -68 85 -82 103 l-26 34 21 16 c11 10 95 77 186 151 92 73
167 135 167 138 0 8 -112 143 -119 143 -3 -1 -40 -29 -82 -63z"/>
<path d="M10026 2963 l-56 -68 72 -69 c40 -38 149 -138 242 -223 l170 -155 28
33 c16 19 42 50 58 70 l30 37 -163 148 c-89 82 -191 176 -227 209 -103 96 -90
95 -154 18z"/>
<path d="M2759 2906 c-3 -3 -30 -10 -59 -16 -29 -6 -55 -12 -58 -15 -2 -2 13
-24 34 -49 l39 -45 78 -1 c42 0 77 3 77 8 -1 12 -105 124 -111 118z"/>
<path d="M2465 2738 c-66 -61 -168 -158 -228 -216 l-107 -104 29 -36 c48 -60
98 -105 105 -93 4 6 106 103 226 216 121 114 220 209 220 213 0 10 -110 132
-119 132 -4 0 -61 -50 -126 -112z"/>
<path d="M2749 2641 c-8 -10 -97 -114 -199 -231 -102 -117 -186 -218 -188
-225 -2 -7 22 -34 53 -60 l56 -48 23 22 c13 12 64 69 112 126 49 57 90 102 92
101 1 -2 -16 -87 -39 -191 -22 -103 -37 -190 -32 -194 84 -72 122 -101 131
-101 5 0 95 98 200 218 104 120 197 224 206 231 15 13 14 17 -11 43 -15 17
-44 43 -64 59 l-37 29 -107 -123 c-93 -105 -143 -154 -122 -120 9 15 77 332
76 356 0 14 -23 40 -64 75 -35 28 -66 52 -68 52 -3 0 -11 -9 -18 -19z"/>
<path d="M9692 2598 l-61 -62 179 -185 c98 -103 200 -207 227 -233 l48 -48
155 155 155 155 -58 57 -57 58 -91 -90 -91 -90 -167 173 c-92 94 -169 172
-173 172 -3 0 -33 -28 -66 -62z"/>
<path d="M9376 2325 l-65 -56 35 -97 c20 -53 70 -194 111 -312 41 -118 78
-220 82 -227 4 -8 30 6 77 44 72 56 72 56 59 87 -30 73 -31 70 46 130 39 31
76 53 82 49 7 -3 24 -15 39 -25 14 -10 32 -18 38 -18 13 0 138 100 139 112 1
8 -554 368 -568 368 -5 0 -39 -25 -75 -55z m217 -224 l78 -59 -38 -31 c-21
-17 -40 -31 -44 -31 -4 0 -12 15 -20 33 -7 17 -25 58 -40 90 -15 31 -24 57
-21 57 4 0 42 -27 85 -59z"/>
<path d="M3190 2197 c-175 -245 -289 -406 -304 -428 l-16 -26 71 -52 c39 -29
72 -51 73 -49 1 2 40 55 86 118 178 244 280 390 280 398 0 10 -124 102 -136
102 -5 0 -29 -29 -54 -63z"/>
<path d="M9055 2084 c-66 -47 -153 -106 -192 -132 -40 -26 -73 -51 -73 -55 0
-12 80 -127 88 -127 4 0 23 11 42 23 19 13 47 31 61 41 l26 17 132 -201 c72
-110 136 -200 141 -200 14 0 140 83 140 93 0 4 -58 95 -130 201 -71 107 -130
198 -130 203 0 5 27 28 61 52 l60 43 -17 26 c-43 67 -70 102 -79 101 -5 0 -64
-38 -130 -85z"/>
<path d="M3423 1997 c-153 -82 -254 -287 -213 -436 26 -98 168 -201 278 -201
63 0 106 16 155 60 l37 32 -56 64 -56 64 -35 -30 c-40 -36 -69 -38 -114 -7
-59 40 -54 119 16 224 60 90 127 116 182 69 24 -21 28 -32 29 -77 l0 -52 72
-26 c39 -14 74 -22 79 -18 4 5 9 41 11 81 4 63 0 80 -22 123 -64 128 -246 193
-363 130z"/>
<path d="M8658 1828 c-38 -22 -68 -45 -68 -51 0 -7 42 -84 93 -172 51 -88 121
-211 156 -273 l63 -112 57 32 c85 48 91 52 91 61 0 12 -313 557 -320 556 -3 0
-35 -19 -72 -41z"/>
<path d="M8480 1733 c-41 -19 -76 -36 -78 -38 -2 -1 15 -98 38 -215 23 -116
39 -217 38 -222 -2 -6 -66 66 -142 161 -103 129 -142 171 -155 166 -52 -18
-141 -61 -141 -68 0 -5 97 -120 215 -257 l215 -249 56 25 c113 50 135 64 130
82 -3 9 -26 158 -51 331 -25 173 -46 315 -47 316 -2 1 -37 -13 -78 -32z"/>
<path d="M3840 1495 c-129 -129 -232 -236 -229 -239 2 -2 38 -21 79 -40 l74
-36 36 35 c20 19 40 35 45 35 5 0 44 -17 87 -37 l79 -36 -7 -57 -6 -56 81 -38
c45 -21 84 -37 86 -34 4 4 75 615 75 648 0 17 -16 29 -76 56 -41 19 -78 34
-82 34 -4 0 -113 -106 -242 -235z m225 -32 c-4 -27 -11 -69 -17 -95 l-10 -48
-49 26 -50 25 63 69 c35 39 65 70 67 70 2 0 0 -21 -4 -47z"/>
<path d="M4676 1398 c-10 -35 -49 -167 -87 -294 -38 -128 -69 -238 -69 -246 0
-12 104 -48 138 -48 8 0 26 55 95 295 14 48 15 43 16 -141 l1 -192 66 -16 c36
-9 69 -14 73 -11 9 5 166 270 176 298 4 9 11 17 15 17 4 0 -14 -78 -41 -172
-26 -95 -45 -175 -43 -178 5 -5 148 -40 151 -37 4 5 153 566 155 587 3 23 -3
26 -81 47 -155 41 -126 57 -232 -131 l-94 -165 -3 197 -2 197 -88 23 c-48 12
-96 25 -108 28 -18 5 -23 -2 -38 -58z"/>
<path d="M5596 1345 c-20 -26 -36 -51 -36 -55 0 -4 25 -10 56 -13 56 -6 58 -5
113 40 31 25 58 49 59 54 2 5 -12 9 -31 9 -19 0 -54 3 -79 6 -45 6 -46 6 -82
-41z"/>
<path d="M7563 1368 l-72 -20 -5 -51 c-3 -29 -10 -137 -16 -242 -7 -104 -15
-230 -19 -280 -4 -49 -6 -92 -5 -94 3 -3 45 6 137 30 37 10 37 10 37 63 l0 53
83 22 c45 12 87 21 94 21 6 0 23 -20 37 -44 l25 -44 88 25 c49 14 89 27 91 28
2 1 -32 54 -75 116 -44 63 -128 187 -187 277 -68 101 -115 162 -125 161 -9 0
-48 -10 -88 -21z m77 -207 c0 -5 18 -39 40 -75 22 -36 40 -70 40 -75 0 -10
-61 -31 -87 -31 -10 0 -13 26 -13 95 0 57 4 95 10 95 6 0 10 -4 10 -9z"/>
<path d="M5386 1138 c-10 -73 -29 -203 -42 -288 -29 -189 -30 -210 -6 -210 9
0 112 -14 227 -30 116 -16 213 -26 216 -22 4 4 9 37 13 73 l6 65 -137 20 -138
19 2 48 c1 27 4 51 7 54 3 3 56 -1 118 -9 62 -9 116 -13 119 -9 4 3 10 34 14
67 8 73 15 69 -130 85 l-106 12 6 41 c4 23 10 44 14 47 3 4 62 -2 131 -12 68
-10 128 -15 132 -11 4 4 10 36 14 72 l6 65 -193 24 c-107 13 -208 26 -225 29
l-31 4 -17 -134z"/>
<path d="M6982 1251 c-59 -20 -114 -68 -142 -122 -19 -37 -38 -123 -34 -155 1
-10 5 -45 8 -77 18 -170 112 -274 255 -285 129 -9 234 44 280 141 20 43 32
120 19 125 -5 1 -43 2 -87 2 l-78 0 -7 -39 c-12 -76 -87 -104 -145 -55 -45 38
-66 122 -62 250 1 46 43 84 92 84 37 0 53 -12 84 -65 10 -16 15 -15 88 6 55
16 77 27 77 38 0 9 -16 39 -34 67 -65 96 -186 129 -314 85z"/>
<path d="M5938 1206 c-1 -1 -6 -142 -12 -315 -9 -268 -9 -314 3 -319 8 -3 84
-6 170 -6 152 -1 157 0 214 28 98 48 140 133 140 286 0 115 -24 191 -79 246
-57 58 -108 72 -286 77 -82 2 -149 4 -150 3z m283 -167 c31 -16 49 -73 49
-153 0 -127 -34 -176 -122 -176 l-48 0 0 144 c0 79 3 158 6 176 7 32 7 32 53
25 25 -4 53 -11 62 -16z"/>
<path d="M6537 1203 c-15 -4 -17 -12 -12 -61 8 -76 35 -498 35 -541 l0 -34 85
5 c47 2 88 7 92 11 5 6 -15 353 -34 560 l-6 67 -71 -1 c-39 -1 -79 -3 -89 -6z"/>
</g>
</svg>
